#!OML:ASF H:\BabyWalks\Project 1\Capture day 1\Session 1\baby.ASF
:FULLY-SPECIFIED
:DEGREES
1351
root -10.342 17.2532 -1.87892 -497.99 81.6253 -504.176
lowerback 20.0366 -1.41369 5.55523
upperback 2.01204 0.33116 6.13741
thorax -9.08264 0.226766 3.454
lowerneck 1.69986 -1.27839 9.10286
upperneck -22.2195 -2.73818 -12.5311
head -7.28341 -0.731769 -5.58277
rclavicle 4.01545e-014 7.95139e-015
rhumerus -47.9036 7.65575 -73.3755
rradius 31.5248
rwrist 17.2451
rhand 0.385508 -11.2062
rfingers 7.12502
rthumb 25.9596 -39.4534
lclavicle 4.01545e-014 7.95139e-015
lhumerus -51.1517 -22.335 91.0307
lradius 69.6095
lwrist -0.898575
lhand -6.72618 5.03959
lfingers 7.12502
lthumb 19.1341 34.1184
rfemur -21.598 8.74942 23.8464
rtibia 38.3646
rfoot -21.9589 -7.35041
rtoes -10.436
lfemur -20.8726 -5.88009 -5.56929
ltibia 61.4373
lfoot -17.6907 -26.0294
ltoes -5.58945
1352
root -10.2041 17.2309 -1.86442 -496.763 81.8128 -502.868
lowerback 20.112 -1.28646 5.65793
upperback 2.04944 0.548979 6.27232
thorax -9.08892 0.33381 3.48543
lowerneck 1.73186 -1.24528 9.08569
upperneck -22.1764 -2.70471 -12.6143
head -7.2708 -0.707384 -5.6091
rclavicle -5.56597e-015 -5.40694e-014
rhumerus -46.7243 6.5398 -72.4607
rradius 30.883
rwrist 19.0397
rhand -0.104997 -11.3363
rfingers 7.12502
rthumb 25.4898 -39.6515
lclavicle -5.56597e-015 -5.40694e-014
lhumerus -52.1331 -21.7613 91.5548
lradius 67.437
lwrist -1.79229
lhand -6.21962 4.7881
lfingers 7.12502
lthumb 19.6212 33.8179
rfemur -21.1645 8.92711 24.0995
rtibia 38.6959
rfoot -22.5564 -7.43741
rtoes -10.5699
lfemur -21.7985 -5.49562 -5.35758
ltibia 62.8266
lfoot -17.8471 -26.3636
ltoes -5.45377
1353
root -10.0661 17.2137 -1.85202 -495.547 82.0441 -501.61
lowerback 20.1808 -1.14463 5.725
upperback 2.06307 0.772067 6.37016
thorax -9.11779 0.441972 3.49504
lowerneck 1.75269 -1.22611 9.07901
upperneck -22.088 -2.69103 -12.7067
head -7.24393 -0.694426 -5.63732
rclavicle 9.14409e-015 -5.88403e-014
rhumerus -45.6617 5.42408 -71.6756
rradius 30.4737
rwrist 20.5013
rhand -1.05495 -11.5976
rfingers 7.12502
rthumb 24.5795 -40.0397
lclavicle 9.14409e-015 -5.88403e-014
lhumerus -53.1254 -21.2353 92.0659
lradius 65.2606
lwrist -2.63529
lhand -5.57159 4.43446
lfingers 7.12502
lthumb 20.2441 33.3995
rfemur -20.7267 9.11278 24.2868
rtibia 38.9339
rfoot -23.1075 -7.48191
rtoes -10.6815
lfemur -22.7315 -5.09105 -5.23634
ltibia 63.9507
lfoot -18.2118 -26.5614
ltoes -5.71617
1354
root -9.92777 17.2021 -1.84217 -494.324 82.3086 -500.38
lowerback 20.2379 -0.992228 5.77148
upperback 2.05837 0.997994 6.43239
thorax -9.16015 0.549787 3.47608
lowerneck 1.75847 -1.22011 9.08677
upperneck -21.9651 -2.69713 -12.815
head -7.2058 -0.692326 -5.67095
rclavicle 1.55052e-014 -2.54444e-014
rhumerus -44.7376 4.40959 -71.0863
rradius 30.3221
rwrist 21.4983
rhand -2.48976 -11.9867
rfingers 7.12502
rthumb 23.2036 -40.6089
lclavicle 1.55052e-014 -2.54444e-014
lhumerus -54.1333 -20.7663 92.5679
lradius 63.1334
lwrist -3.36683
lhand -4.77353 3.9927
lfingers 7.12502
lthumb 21.011 32.8745
rfemur -20.2764 9.29175 24.4167
rtibia 39.0666
rfoot -23.6057 -7.4745
rtoes -10.7516
lfemur -23.6704 -4.68419 -5.20265
ltibia 64.8033
lfoot -18.7407 -26.6004
ltoes -6.26497
1355
root -9.78913 17.1964 -1.83503 -493.085 82.5926 -499.166
lowerback 20.2809 -0.833881 5.80936
upperback 2.03946 1.22334 6.46087
thorax -9.20967 0.655436 3.42455
lowerneck 1.7497 -1.22358 9.11825
upperneck -21.8247 -2.71848 -12.9464
head -7.1616 -0.698459 -5.71513
rclavicle 1.43125e-014 2.8625e-014
rhumerus -43.962 3.58327 -70.7381
rradius 30.4452
rwrist 21.9576
rhand -4.37398 -12.4861
rfingers 7.12502
rthumb 21.3948 -41.3249
lclavicle 1.43125e-014 2.8625e-014
lhumerus -55.1612 -20.3648 93.0677
lradius 61.103
lwrist -3.93937
lhand -3.80766 3.59272
lfingers 7.12502
lthumb 21.9387 32.3687
rfemur -19.806 9.45083 24.4999
rtibia 39.085
rfoot -24.0442 -7.41804
rtoes -10.7947
lfemur -24.6103 -4.29055 -5.24743
ltibia 65.3799
lfoot -19.3716 -26.453
ltoes -6.94431
1356
root -9.64982 17.1972 -1.8306 -491.841 82.8954 -497.98
lowerback 20.3048 -0.66997 5.83645
upperback 2.01053 1.44633 6.45587
thorax -9.25865 0.758306 3.34229
lowerneck 1.72703 -1.23382 9.16564
upperneck -21.6748 -2.75035 -13.0922
head -7.11346 -0.710368 -5.76603
rclavicle -3.97569e-016 -1.90833e-014
rhumerus -43.3318 3.01056 -70.6514
rradius 30.8505
rwrist 21.8423
rhand -6.59373 -13.0777
rfingers 7.12502
rthumb 19.2615 -42.1438
lclavicle -3.97569e-016 -1.90833e-014
lhumerus -56.2078 -20.0334 93.5682
lradius 59.202
lwrist -4.34479
lhand -2.6711 3.25601
lfingers 7.12502
lthumb 23.0296 31.9001
rfemur -19.3104 9.58619 24.5347
rtibia 38.982
rfoot -24.4197 -7.3137
rtoes -10.8171
lfemur -25.5403 -3.92391 -5.37293
ltibia 65.6738
lfoot -20.0685 -26.0751
ltoes -7.71902
1357
root -9.50958 17.2045 -1.82858 -490.66 83.2163 -496.887
lowerback 20.3068 -0.503915 5.84208
upperback 1.97416 1.65965 6.418
thorax -9.30253 0.855453 3.23813
lowerneck 1.69083 -1.24672 9.23108
upperneck -21.5251 -2.78732 -13.2542
head -7.06404 -0.725125 -5.82548
rclavicle -1.59028e-014 -1.01778e-013
rhumerus -42.8376 2.73046 -70.8238
rradius 31.53
rwrist 21.1874
rhand -9.04152 -13.7236
rfingers 7.12502
rthumb 16.9065 -43.0077
lclavicle -1.59028e-014 -1.01778e-013
lhumerus -57.2698 -19.7672 94.0702
lradius 57.4494
lwrist -4.60775
lhand -1.32807 3.08547
lfingers 7.12502
lthumb 24.3177 31.5629
rfemur -18.7857 9.69544 24.5155
rtibia 38.755
rfoot -24.7292 -7.16654
rtoes -10.8183
lfemur -26.453 -3.60464 -5.58155
ltibia 65.683
lfoot -20.7902 -25.4536
ltoes -8.52911
